<svg width="512" height="512" viewBox="0 0 512 512" fill="none" xmlns="http://www.w3.org/2000/svg">
    <!-- Definitions for Gradients -->
    <defs>
        <linearGradient id="shieldGrad" x1="256" y1="0" x2="256" y2="512" gradientUnits="userSpaceOnUse">
            <stop offset="0%" stop-color="#007ACC"/>
            <stop offset="100%" stop-color="#005FA0"/>
        </linearGradient>
        <filter id="shadow" x="0" y="0" width="512" height="512">
            <feDropShadow dx="0" dy="4" stdDeviation="4" flood-color="#000000" flood-opacity="0.25"/>
        </filter>
    </defs>

    <!-- Shield Body -->
    <path d="M256 32L64 96V224C64 352 144 464 256 512C368 464 448 352 448 224V96L256 32Z"
          fill="url(#shieldGrad)"
          filter="url(#shadow)"/>

    <!-- Inner Puzzle Piece (Symbolizing Extension) -->
    <path fill-rule="evenodd" clip-rule="evenodd"
          d="M288 160H320C337.673 160 352 174.327 352 192V224C352 232.837 359.163 240 368 240C376.837 240 384 232.837 384 224V192C384 156.654 355.346 128 320 128H288C288 119.163 280.837 112 272 112C263.163 112 256 119.163 256 128H192C156.654 128 128 156.654 128 192V256C128 256 128 256 128 256C119.163 256 112 263.163 112 272C112 280.837 119.163 288 128 288C128 288 128 288 128 288V352C128 387.346 156.654 416 192 416H256C256 424.837 263.163 432 272 432C280.837 432 288 424.837 288 416H320C355.346 416 384 387.346 384 352V320C384 311.163 376.837 304 368 304C359.163 304 352 311.163 352 320V352C352 369.673 337.673 384 320 384H288C288 375.163 280.837 368 272 368C263.163 368 256 375.163 256 384H192C174.327 384 160 369.673 160 352V288C168.837 288 176 280.837 176 272C176 263.163 168.837 256 160 256V192C160 174.327 174.327 160 192 160H256C256 168.837 263.163 176 272 176C280.837 176 288 168.837 288 160Z"
          fill="white"/>

    <!-- Small Checkmark Badge (Status OK) -->
    <circle cx="360" cy="360" r="64" fill="#4CAF50" stroke="#FFFFFF" stroke-width="8"/>
    <path d="M336 360L352 376L384 344" stroke="white" stroke-width="12" stroke-linecap="round" stroke-linejoin="round"/>
</svg>
